Coordinates
version=1
nRows=13
nColumns=22
inDegrees=yes

Units are S.I. units (second, meters, Newtons, ...)
If the header above contains a line with 'inDegrees', this indicates whether rotational values are in degrees (yes) or radians (no).

endheader
time	pelvis_tilt	pelvis_list	pelvis_rotation	pelvis_tx	pelvis_ty	pelvis_tz	hip_flexion_r	hip_adduction_r	hip_rotation_r	knee_angle_r	ankle_angle_r	subtalar_angle_r	hip_flexion_l	hip_adduction_l	hip_rotation_l	knee_angle_l	ankle_angle_l	subtalar_angle_l	lumbar_extension	lumbar_bending	lumbar_rotation
      4.07000000	     -0.76431234	     -0.98244280	      4.03985646	      0.87639596	      0.98263875	     -0.05534731	     27.35522740	     -1.56985315	     -8.20744246	    -21.64466340	     -4.70926993	      7.85328166	     -9.17893709	     -4.20826236	     -6.31328501	    -31.26662167	      7.21833112	      9.32826445	     -0.91386838	     -0.37994612	     -6.12002514
      4.08000000	     -0.72287839	     -1.33023717	      4.03670547	      0.88673119	      0.98416667	     -0.05321643	     27.07350343	     -1.04033150	     -8.13607137	    -22.32408886	     -4.43653098	      7.06485529	     -8.32741917	     -4.99585677	     -7.08139336	    -33.61438951	      5.96804756	      9.61602811	     -0.83835571	      0.07562384	     -5.93483333
      4.09000000	     -0.64961341	     -1.66238919	      4.05040860	      0.89678690	      0.98586406	     -0.05107849	     26.64853143	     -0.51018580	     -8.05303000	    -22.79404321	     -4.05879497	      6.49327491	     -7.40908953	     -5.80449605	     -7.82644159	    -36.06095991	      4.85625912	      9.74351590	     -0.82227760	      0.49587654	     -5.78492614
      4.10000000	     -0.54890007	     -1.94760860	      4.11724977	      0.90655321	      0.98769218	     -0.04906145	     26.12147856	     -0.04701419	     -8.06287751	    -23.12545125	     -3.64154245	      5.79977359	     -6.43458745	     -6.57602820	     -8.43733179	    -38.55119184	      3.88783338	      9.71888749	     -0.86167423	      0.85442720	     -5.68111716
      4.11000000	     -0.42432847	     -2.21803306	      4.22695563	      0.91605178	      0.98962961	     -0.04711969	     25.48011986	      0.39453831	     -8.09093848	    -23.27876624	     -3.16955537	      5.45065989	     -5.41364592	     -7.33808069	     -8.93162009	    -41.04541934	      3.12728047	      9.55843376	     -0.94503513	      1.18197319	     -5.62521016
      4.12000000	     -0.28406774	     -2.44430036	      4.40049463	      0.92525603	      0.99163939	     -0.04535369	     24.76974866	      0.76227387	     -8.20263684	    -23.31833635	     -2.69852174	      5.12802327	     -4.35209857	     -8.02627945	     -9.23734287	    -43.47939934	      2.55250800	      9.23997881	     -1.06537688	      1.45177837	     -5.61922093
      4.13000000	     -0.13293513	     -2.60368570	      4.61906305	      0.93418328	      0.99371527	     -0.04375302	     24.00094244	      1.04626181	     -8.34070791	    -23.25420306	     -2.22427151	      4.83989603	     -3.27474312	     -8.58947394	     -9.36258320	    -45.77935908	      2.13425256	      8.72601105	     -1.21447377	      1.63859840	     -5.63703103
      4.14000000	      0.03804198	     -2.71886793	      4.89101302	      0.94284044	      0.99584473	     -0.04236311	     23.18280377	      1.25764491	     -8.54464805	    -23.11855018	     -1.75410469	      4.73577119	     -2.20118515	     -9.04672259	     -9.33008200	    -47.90843532	      1.94601654	      8.35225470	     -1.39680567	      1.77692010	     -5.69886736
      4.15000000	      0.21094876	     -2.76652046	      5.18032560	      0.95124407	      0.99800836	     -0.04113546	     22.33884443	      1.39388547	     -8.74282524	    -22.91975042	     -1.29797759	      4.67175360	     -1.14457948	     -9.34894181	     -9.16894079	    -49.81050218	      1.90546669	      7.92804689	     -1.59007148	      1.83618003	     -5.75424157
      4.16000000	      0.39429369	     -2.75047808	      5.46298624	      0.95943254	      1.00019642	     -0.04004460	     21.47425399	      1.46260999	     -8.94345195	    -22.68813130	     -0.82614992	      4.64744317	     -0.13962183	     -9.50320950	     -8.93967132	    -51.45505831	      2.00160494	      7.57159173	     -1.79781721	      1.82291148	     -5.76159008
      4.17000000	      0.56812014	     -2.68631374	      5.73343600	      0.96742205	      1.00238422	     -0.03905382	     20.59726578	      1.49217264	     -9.08040978	    -22.39403591	     -0.43026195	      4.66322690	      0.82575050	     -9.53592736	     -8.68568952	    -52.83299504	      2.20696909	      7.18326531	     -1.99111277	      1.75469686	     -5.78160541
      4.18000000	      0.74288555	     -2.58982096	      5.96370641	      0.97525658	      1.00454020	     -0.03811630	     19.71603313	      1.49837577	     -9.19075889	    -22.07532127	     -0.03287133	      4.69566044	      1.72133136	     -9.48093413	     -8.46579600	    -53.93962902	      2.49046019	      6.85110730	     -2.17549305	      1.64876990	     -5.72791034
      4.19000000	      0.90782207	     -2.47866307	      6.12504759	      0.98294275	      1.00661374	     -0.03713777	     18.85663770	      1.51001409	     -9.25054613	    -21.75366180	      0.35971319	      4.70788248	      2.55145981	     -9.37591861	     -8.32796705	    -54.78622109	      2.85909135	      6.63620399	     -2.34061929	      1.51632427	     -5.59740332
